<?xml version="1.0" standalone="no"?>
<!DOCTYPE svg PUBLIC "-//W3C//DTD SVG 20010904//EN"
 "http://www.w3.org/TR/2001/REC-SVG-20010904/DTD/svg10.dtd">
<svg version="1.0" xmlns="http://www.w3.org/2000/svg"
 width="700.000000pt" height="700.000000pt" viewBox="0 0 700.000000 700.000000"
 preserveAspectRatio="xMidYMid meet">
<metadata>
Created by potrace 1.14, written by Peter Selinger 2001-2017
</metadata>
<g transform="translate(0.000000,700.000000) scale(0.100000,-0.100000)"
fill="#000000" stroke="none">
<path d="M6958 6995 c-3 -3 -34 -7 -138 -21 -25 -3 -70 -9 -100 -14 -30 -5
-75 -12 -100 -15 -25 -3 -70 -10 -100 -15 -30 -5 -77 -12 -105 -15 -27 -3 -62
-8 -77 -11 -15 -3 -40 -7 -56 -9 -23 -3 -219 -31 -412 -60 -14 -2 -61 -9 -105
-15 -44 -6 -91 -13 -105 -15 -14 -2 -90 -13 -170 -25 -80 -12 -156 -23 -170
-25 -14 -2 -45 -7 -70 -10 -25 -3 -88 -12 -140 -20 -52 -8 -113 -17 -135 -20
-22 -3 -67 -10 -100 -15 -33 -5 -80 -12 -105 -15 -25 -3 -88 -13 -140 -21 -52
-8 -111 -16 -130 -18 -19 -3 -64 -9 -100 -15 -36 -5 -85 -13 -110 -16 -25 -3
-56 -8 -70 -10 -14 -2 -122 -18 -240 -35 -118 -17 -226 -33 -240 -35 -14 -2
-50 -7 -80 -11 -30 -4 -57 -8 -60 -9 -8 -2 -101 -15 -135 -19 -108 -14 -249
-37 -254 -42 -3 -2 -5 -632 -5 -1399 l-1 -1395 490 5 c270 2 814 7 1210 10
1626 12 2079 16 2086 21 4 2 8 748 8 1657 0 1596 -1 1653 -19 1654 -10 1 -20
0 -22 -2z"/>
<path d="M2829 6396 c-4 -4 -47 -10 -214 -32 -22 -3 -67 -9 -100 -14 -33 -5
-85 -12 -115 -15 -30 -3 -62 -8 -70 -10 -8 -2 -40 -7 -70 -10 -58 -7 -80 -10
-145 -20 -22 -3 -53 -7 -70 -9 -85 -11 -140 -18 -158 -22 -10 -2 -45 -6 -76
-10 -31 -3 -63 -8 -72 -9 -9 -2 -40 -6 -70 -10 -30 -3 -97 -13 -149 -20 -52
-8 -117 -17 -145 -20 -101 -12 -131 -16 -195 -26 -36 -6 -78 -12 -95 -14 -30
-3 -178 -23 -225 -30 -14 -2 -49 -7 -79 -10 -30 -4 -61 -8 -70 -10 -9 -1 -38
-6 -66 -9 -91 -12 -129 -17 -190 -26 -33 -5 -82 -12 -110 -15 -27 -3 -61 -8
-75 -10 -14 -2 -49 -7 -79 -10 -30 -4 -61 -8 -70 -10 -9 -1 -40 -6 -69 -10
l-52 -7 2 -1189 2 -1190 895 6 c493 3 1136 7 1428 8 l533 2 1 115 c2 504 -3
2625 -7 2632 -6 9 -18 11 -25 4z"/>
<path d="M3 2159 c0 -654 3 -1189 6 -1190 3 0 14 -2 23 -4 9 -2 34 -5 55 -8
21 -3 76 -11 123 -17 47 -7 96 -14 110 -15 14 -2 50 -7 80 -10 30 -3 62 -8 70
-10 8 -2 42 -7 75 -10 33 -4 67 -8 75 -10 15 -4 54 -9 150 -21 30 -3 57 -7 60
-9 3 -1 32 -6 65 -9 33 -4 71 -9 85 -11 68 -10 109 -15 155 -21 28 -3 58 -8
68 -10 10 -1 70 -10 135 -19 64 -8 133 -18 152 -21 55 -8 250 -34 300 -40 43
-5 55 -7 125 -18 32 -5 165 -23 230 -31 22 -3 54 -7 70 -9 17 -3 53 -8 80 -11
28 -4 61 -9 75 -11 52 -7 167 -23 215 -29 28 -3 75 -10 105 -15 30 -5 81 -11
113 -15 l57 -6 0 53 c2 568 -1 2692 -3 2694 -2 2 -421 6 -932 9 -512 4 -1153
8 -1426 10 l-496 3 0 -1189z"/>
<path d="M3204 1923 l2 -1388 40 -6 c21 -4 64 -10 94 -13 30 -4 66 -9 80 -11
45 -8 83 -14 240 -35 85 -12 166 -23 180 -25 14 -2 43 -7 65 -9 22 -3 56 -8
75 -11 61 -9 313 -44 365 -50 28 -4 57 -8 65 -10 8 -3 40 -7 70 -10 30 -3 62
-8 70 -10 8 -2 40 -7 70 -10 30 -3 62 -8 70 -10 8 -2 35 -6 60 -9 25 -3 79
-10 120 -16 41 -5 93 -13 115 -15 22 -3 51 -8 65 -10 14 -3 45 -7 70 -10 25
-3 72 -10 105 -15 33 -5 80 -12 105 -15 47 -6 114 -15 140 -20 8 -2 40 -6 71
-9 31 -4 65 -8 75 -10 17 -3 67 -11 144 -21 14 -2 72 -10 130 -19 58 -8 128
-18 155 -21 28 -3 61 -8 75 -10 14 -3 41 -7 60 -10 55 -7 193 -27 210 -30 8
-1 40 -6 70 -9 30 -4 66 -8 80 -11 14 -2 61 -9 105 -15 44 -6 91 -12 105 -14
14 -2 46 -7 71 -10 25 -4 57 -8 70 -11 13 -2 43 -6 66 -9 l42 -5 1 1649 c0
1323 -2 1650 -12 1651 -7 0 -862 3 -1900 5 l-1886 5 2 -1388z"/>
</g>
</svg>
